#!OML:ASF E:\emotionWalksFemale\Project 1\Capture day 1\Session 1\Female1.ASF
:FULLY-SPECIFIED
:DEGREES
573
root 9.10735 15.1577 31.762 185.302 -2.31768 -177.486
lowerback 8.4258 2.03981 4.49824
upperback -3.26561 3.28892 1.35552
thorax -8.01878 1.37737 -1.58218
lowerneck -3.86596 1.59419 -1.34622
upperneck 7.83803 1.93047 2.35356
head 3.1524 0.957467 1.07202
rclavicle 6.18717e-015 1.11319e-014
rhumerus -29.8191 8.48212 -86.023
rradius 40.7689
rwrist 20.106
rhand -13.2554 -54.0132
rfingers 7.12502
rthumb 12.847 996.402
lclavicle 6.18717e-015 1.11319e-014
lhumerus -46.3748 8.85882 74.9788
lradius 40.8008
lwrist -9.45097
lhand -4.26484 -33.2399
lfingers 7.12502
lthumb 21.4996 -4.41304
rfemur 14.4476 8.6367 34.5206
rtibia -3.18055e-015
rfoot -15.1118 -26.0056
rtoes 10.6676
lfemur -37.4332 -19.6006 -10.3365
ltibia 26.4225
lfoot -16.182 22.6226
ltoes -32.1352
574
root 9.09265 15.1554 31.6681 185.224 -2.23241 -177.219
lowerback 8.42109 2.01966 4.6981
upperback -3.21813 3.28343 1.39988
thorax -7.95767 1.36666 -1.64456
lowerneck -3.73945 1.45187 -1.48477
upperneck 7.39285 1.76049 2.44224
head 2.97867 0.876808 1.11125
rclavicle -1.4238e-014 5.96354e-015
rhumerus -29.633 8.52273 -86.0603
rradius 40.5803
rwrist 19.6297
rhand -13.6382 -53.9581
rfingers 7.12502
rthumb 12.4779 996.434
lclavicle -1.4238e-014 5.96354e-015
lhumerus -45.8768 9.78116 74.2246
lradius 39.7646
lwrist -10.3309
lhand -4.548 -33.8662
lfingers 7.12502
lthumb 21.2276 -5.00855
rfemur 14.9137 8.43875 34.7598
rtibia 6.99722e-014
rfoot -14.9119 -25.6075
rtoes 10.8597
lfemur -37.5127 -20.5514 -9.42115
ltibia 25.8145
lfoot -16.6506 23.3369
ltoes -31.1343
575
root 9.08654 15.1514 31.5679 184.931 -1.99102 -176.64
lowerback 8.51116 2.08778 5.03713
upperback -3.04595 3.41643 1.52897
thorax -7.80657 1.422 -1.71633
lowerneck -3.82693 1.28693 -1.53851
upperneck 7.10614 1.54713 2.5921
head 2.9019 0.779022 1.15946
rclavicle 2.38914e-014 8.34896e-015
rhumerus -29.4913 8.50123 -86.1106
rradius 40.6716
rwrist 19.2003
rhand -13.7714 -54.2979
rfingers 7.12502
rthumb 12.3496 996.087
lclavicle 2.38914e-014 8.34896e-015
lhumerus -46.0528 8.56752 74.4967
lradius 40.7569
lwrist -8.98287
lhand -4.60404 -32.7767
lfingers 7.12502
lthumb 21.1738 -3.91303
rfemur 15.5577 8.35469 35.3781
rtibia -2.22639e-014
rfoot -14.4937 -25.4816
rtoes 10.4743
lfemur -37.3359 -21.2441 -8.30117
ltibia 25.3539
lfoot -16.9999 24.1561
ltoes -30.6509
576
root 9.05306 15.1669 31.4826 185.291 -1.86348 -177.106
lowerback 8.23203 2.17552 4.84695
upperback -3.10389 3.48675 1.23221
thorax -7.69382 1.46624 -1.92213
lowerneck -3.84018 1.0424 -1.60548
upperneck 6.80864 1.22233 2.78819
head 2.81104 0.625263 1.22012
rclavicle -3.84897e-014 -1.35174e-014
rhumerus -29.4037 8.10136 -85.9731
rradius 40.82
rwrist 19.3471
rhand -13.2703 -54.5651
rfingers 7.12502
rthumb 12.8326 995.849
lclavicle -3.84897e-014 -1.35174e-014
lhumerus -45.7018 9.2376 73.7018
lradius 40.2936
lwrist -10.1193
lhand -4.09197 -33.1128
lfingers 7.12502
lthumb 21.6656 -4.30507
rfemur 15.5485 8.27111 34.6535
rtibia 1.90833e-014
rfoot -13.8972 -25.3146
rtoes 9.63186
lfemur -37.7916 -22.0083 -8.28374
ltibia 25.1092
lfoot -12.6226 25.8491
ltoes -42.7406
577
root 9.02857 15.1693 31.382 185.283 -1.67662 -177.07
lowerback 8.33076 2.21191 4.91868
upperback -3.19617 3.55066 1.20038
thorax -7.84047 1.4866 -2.01138
lowerneck -3.70234 0.841345 -1.82051
upperneck 6.63633 0.960891 2.92568
head 2.73363 0.493903 1.28999
rclavicle -4.50123e-014 -4.37326e-014
rhumerus -29.4062 7.73345 -85.7633
rradius 40.7096
rwrist 19.6853
rhand -12.3887 -54.8981
rfingers 7.12502
rthumb 13.6824 995.572
lclavicle -4.50123e-014 -4.37326e-014
lhumerus -46.089 9.74663 73.0454
lradius 40.4407
lwrist -10.8812
lhand -3.90941 -33.737
lfingers 7.12502
lthumb 21.8409 -4.94959
rfemur 15.9315 8.18481 34.5488
rtibia 1.59028e-014
rfoot -13.078 -25.125
rtoes 8.65402
lfemur -37.6847 -22.5222 -7.98148
ltibia 24.8082
lfoot -10.7889 26.6517
ltoes -46.6485
578
root 9.01466 15.1602 31.2706 184.917 -1.40869 -176.436
lowerback 8.56332 2.18365 5.26637
upperback -3.11352 3.57367 1.51566
thorax -7.88639 1.48154 -1.88391
lowerneck -3.67835 0.715191 -2.23162
upperneck 6.53306 0.82056 2.97895
head 2.69853 0.417116 1.37368
rclavicle -4.22169e-014 -4.21423e-014
rhumerus -29.2637 7.96542 -85.5866
rradius 40.4054
rwrist 19.4688
rhand -11.871 -55.4311
rfingers 7.12502
rthumb 14.1813 995.073
lclavicle -4.22169e-014 -4.21423e-014
lhumerus -46.7081 9.75415 72.9499
lradius 41.082
lwrist -10.254
lhand -4.00986 -33.6927
lfingers 7.12502
lthumb 21.7445 -4.89402
rfemur 16.7041 8.12137 35.1849
rtibia 5.40694e-014
rfoot -12.3341 -25.1516
rtoes 7.45171
lfemur -37.1098 -22.7291 -7.27359
ltibia 24.5486
lfoot -10.8754 27.0212
ltoes -46.6499
579
root 8.97472 15.1727 31.1755 185.289 -1.2615 -177.045
lowerback 8.30994 2.19654 4.92896
upperback -3.23053 3.53184 1.26107
thorax -7.87005 1.47539 -1.95004
lowerneck -3.61878 0.519719 -2.58048
upperneck 6.28321 0.573209 3.22378
head 2.6127 0.295015 1.50367
rclavicle 1.37658e-014 -6.36111e-015
rhumerus -29.2508 7.9705 -85.452
rradius 40.1955
rwrist 19.2565
rhand -11.761 -55.8646
rfingers 7.12502
rthumb 14.2873 994.647
lclavicle 1.37658e-014 -6.36111e-015
lhumerus -46.6251 10.2365 72.4941
lradius 40.6364
lwrist -10.112
lhand -3.9726 -33.9446
lfingers 7.12502
lthumb 21.7803 -5.15005
rfemur 16.7523 8.05585 34.2855
rtibia -5.40694e-014
rfoot -11.7092 -24.9665
rtoes 6.49652
lfemur -37.3903 -22.9495 -7.83813
ltibia 24.6714
lfoot -11.0694 27.3783
ltoes -46.012
580
root 8.94922 15.1779 31.071 185.278 -1.10364 -176.967
lowerback 8.26788 2.2658 5.08409
upperback -3.23864 3.63451 1.1528
thorax -7.83173 1.51683 -2.16308
lowerneck -3.49998 0.276844 -2.70533
upperneck 6.00918 0.241259 3.52866
head 2.51247 0.135982 1.61068
rclavicle 2.90723e-015 -8.74653e-015
rhumerus -29.285 7.37368 -85.2429
rradius 39.9721
rwrist 19.5276
rhand -12.1841 -55.8258
rfingers 7.12502
rthumb 13.8796 994.657
lclavicle 2.90723e-015 -8.74653e-015
lhumerus -46.463 10.7655 71.8478
lradius 40.1218
lwrist -10.6194
lhand -4.82532 -35.1138
lfingers 7.12502
lthumb 20.9612 -6.22647
rfemur 17.1533 7.9454 34.2324
rtibia 2.22639e-014
rfoot -10.9662 -24.5837
rtoes 5.63206
lfemur -37.1618 -22.6064 -8.0634
ltibia 24.8696
lfoot -11.5289 26.9273
ltoes -46.2039
581
root 8.94368 15.1707 30.9529 184.898 -0.828964 -176.263
lowerback 8.37847 2.33688 5.31985
upperback -3.11403 3.76743 1.431
thorax -7.75755 1.57619 -2.0212
lowerneck -3.38595 0.0576593 -2.96698
upperneck 5.86468 -0.0490518 3.74415
head 2.45697 -0.00901509 1.71645
rclavicle -7.17488e-014 -2.62396e-014
rhumerus -29.2816 7.12173 -84.9677
rradius 39.8653
rwrist 19.6758
rhand -12.0715 -55.7404
rfingers 7.12502
rthumb 13.9881 994.75
lclavicle -7.17488e-014 -2.62396e-014
lhumerus -46.6526 11.0798 71.469
lradius 40.209
lwrist -10.9728
lhand -6.35771 -37.0503
lfingers 7.12502
lthumb 19.4885 -8.00697
rfemur 17.9297 7.88639 34.968
rtibia 6.04305e-014
rfoot -10.268 -24.2792
rtoes 5.2745
lfemur -36.3732 -21.907 -7.83471
ltibia 24.9596
lfoot -11.7016 26.6806
ltoes -46.5718
582
root 8.91339 15.1731 30.8412 184.967 -0.610916 -176.345
lowerback 8.22788 2.38475 5.21577
upperback -3.14095 3.8087 1.39438
thorax -7.69983 1.60273 -2.00068
lowerneck -3.23546 -0.189892 -3.38478
upperneck 5.73534 -0.372995 3.99948
head 2.40477 -0.173675 1.86315
rclavicle 3.13583e-014 -7.15625e-015
rhumerus -29.3258 7.07736 -84.7964
rradius 39.8982
rwrist 19.5261
rhand -11.5084 -55.7361
rfingers 7.12502
rthumb 14.5307 994.793
lclavicle 3.13583e-014 -7.15625e-015
lhumerus -46.6441 11.2196 71.1211
lradius 40.1037
lwrist -11.0613
lhand -4.50488 -34.019
lfingers 7.12502
lthumb 21.2691 -5.16596
rfemur 18.2915 7.85307 34.6857
rtibia -1.27222e-014
rfoot -9.61276 -23.8855
rtoes 4.75416
lfemur -36.0894 -21.4845 -8.33264
ltibia 25.2082
lfoot -12.977 26.4234
ltoes -43.37
